<svg width="372" height="119" viewBox="0 0 372 119" fill="none" xmlns="http://www.w3.org/2000/svg">
<mask id="mask0_105_3" style="mask-type:luminance" maskUnits="userSpaceOnUse" x="0" y="0" width="36" height="100">
<path d="M0.208328 0.489594H35.6667V99.6667H0.208328V0.489594Z" fill="white"/>
</mask>
<g mask="url(#mask0_105_3)">
<path d="M0.239578 56.0208V43.6927C2.74479 43.5573 4.63541 43.1823 5.91145 42.5625C7.18229 41.9479 8.28125 40.9115 9.20833 39.4531C10.1354 38 10.7708 36.1771 11.1146 33.9844C11.3906 32.3386 11.5312 29.4792 11.5312 25.4063C11.5312 18.7604 11.8385 14.1302 12.4583 11.5104C13.0781 8.89064 14.1927 6.78126 15.8073 5.19272C17.4219 3.59897 19.776 2.33855 22.8698 1.41668C24.9687 0.796885 28.2656 0.489594 32.7708 0.489594H35.5V12.7708C31.6875 12.7708 29.2396 12.9844 28.1562 13.4115C27.0729 13.8386 26.276 14.4896 25.7604 15.3594C25.2448 16.2344 24.9844 17.7344 24.9844 19.8594C24.9844 22.0156 24.8281 26.1094 24.5208 32.1354C24.349 35.5261 23.901 38.2761 23.1823 40.3802C22.4583 42.4844 21.5365 44.224 20.4219 45.5938C19.3073 46.9636 17.5937 48.3854 15.2917 49.8594C17.3229 51.0208 18.9792 52.3854 20.2656 53.9427C21.5573 55.5 22.5417 57.3906 23.2344 59.6198C23.9219 61.8438 24.3646 64.8229 24.5729 68.5573C24.8125 74.2396 24.9323 77.8698 24.9323 79.4479C24.9323 81.7083 25.2083 83.2813 25.7604 84.1719C26.3073 85.0625 27.1406 85.7396 28.2604 86.2031C29.375 86.6667 31.7917 86.8958 35.5 86.8958V99.224H32.7708C28.1302 99.224 24.5729 98.8542 22.099 98.1198C19.625 97.3854 17.5365 96.1615 15.8333 94.4479C14.1302 92.7344 12.9896 90.6198 12.4062 88.1042C11.8229 85.5833 11.5312 81.6198 11.5312 76.2136C11.5312 69.9115 11.2552 65.8177 10.7031 63.9323C9.94791 61.1927 8.80729 59.2344 7.27604 58.0521C5.74479 56.8698 3.40104 56.1927 0.239578 56.0208Z" fill="#393536"/>
</g>
<path d="M78.4531 26.0677H70.3802V18.026H78.4531V26.0677Z" fill="#5271FF"/>
<path d="M76.5469 42.1458H70.3802V36.0052H76.5469V42.1458Z" fill="#5271FF"/>
<mask id="mask1_105_3" style="mask-type:luminance" maskUnits="userSpaceOnUse" x="39" y="19" width="38" height="100">
<path d="M39.6667 19.6667H77V118.49H39.6667V19.6667Z" fill="white"/>
</mask>
<g mask="url(#mask1_105_3)">
<path d="M53.0729 32.2135V26.0677H59.2396V32.2135H53.0729ZM68.7552 60.9323C67.2083 59.75 66.0573 57.7917 65.3021 55.0521C64.8854 53.5052 64.6354 50.5417 64.5573 46.1667H59.2396V38.125H64.4375C64.3125 35.026 64.0365 32.6094 63.625 30.8802C63.0208 28.3646 61.8802 26.2396 60.1979 24.5104C58.5104 22.7813 56.4323 21.5573 53.9583 20.8385C51.4844 20.1198 47.9271 19.7604 43.2865 19.7604H40.5521V32.0365C44.4375 32.0365 46.9375 32.2656 48.0573 32.7292C49.1719 33.1927 49.9479 33.849 50.375 34.7083C50.8073 35.5625 51.0365 37.276 51.0729 39.8438C51.2448 47.9948 51.5156 53.2708 51.8958 55.6667C52.4792 59.1615 53.5781 62.0365 55.1979 64.2969C56.3646 65.8698 58.2187 67.4792 60.7656 69.125C58.8021 70.2552 57.1979 71.5625 55.9427 73.0573C54.6875 74.5469 53.6823 76.3594 52.9271 78.5C52.1719 80.6406 51.7083 83.4896 51.5365 87.0521C51.2604 92.9427 51.1146 96.9323 51.099 99.0208C51.0781 101.109 50.8073 102.594 50.2708 103.469C49.7396 104.339 48.9062 105.005 47.7708 105.469C46.6354 105.932 44.2292 106.161 40.5521 106.161V118.495H43.2865C47.7865 118.495 51.0885 118.182 53.1823 117.568C56.3125 116.641 58.6823 115.385 60.3021 113.792C61.9167 112.198 63.0208 110.083 63.625 107.448C64.224 104.807 64.526 100.172 64.526 93.526C64.526 89.4844 64.6667 86.6406 64.9375 85C65.3177 82.8073 65.9635 80.9844 66.875 79.526C67.7812 78.0729 68.875 77.0365 70.1458 76.4219C71.4167 75.8021 73.3073 75.4271 75.8177 75.2917V62.9583C72.6562 62.7917 70.3021 62.1146 68.7552 60.9323Z" fill="#5271FF"/>
</g>
<mask id="mask2_105_3" style="mask-type:luminance" maskUnits="userSpaceOnUse" x="87" y="3" width="8" height="9">
<path d="M87.6667 3.66667H94.2083V11.6667H87.6667V3.66667Z" fill="white"/>
</mask>
<g mask="url(#mask2_105_3)">
<path d="M94.1875 10.4531H88.0208V4.3073H94.1875V10.4531Z" fill="#5271FF"/>
</g>
<path d="M63.2708 18.026H51.7656V6.5573H63.2708V18.026Z" fill="#5271FF"/>
<path d="M110.458 69.2292C108.094 69.2292 105.901 68.8177 103.875 68C101.859 67.1823 100.115 66.0365 98.6458 64.5625C97.1875 63.0938 96.0469 61.349 95.2292 59.3333C94.4063 57.3229 94 55.125 94 52.75C94 50.3906 94.4167 48.2031 95.25 46.1875C96.0833 44.1615 97.2292 42.4062 98.6875 40.9167C100.156 39.4323 101.896 38.2708 103.896 37.4375C105.906 36.6042 108.083 36.1875 110.417 36.1875C112.875 36.1875 115.156 36.6615 117.271 37.6042C119.396 38.5521 121.229 39.9115 122.771 41.6875L117.938 46.3542C117.021 45.2865 115.938 44.4479 114.688 43.8333C113.448 43.224 112.089 42.9167 110.604 42.9167C109.24 42.9167 107.99 43.1615 106.854 43.6458C105.729 44.1354 104.74 44.8125 103.896 45.6875C103.063 46.5521 102.417 47.5833 101.958 48.7917C101.5 49.9896 101.271 51.2812 101.271 52.6667C101.271 54.0833 101.505 55.3958 101.979 56.6042C102.464 57.8021 103.125 58.8438 103.958 59.7292C104.792 60.6042 105.792 61.2865 106.958 61.7708C108.125 62.2604 109.401 62.5 110.792 62.5C112.302 62.5 113.693 62.1875 114.958 61.5625C116.219 60.9271 117.297 60.0729 118.188 59L123 63.5833C121.484 65.3906 119.656 66.7865 117.521 67.7708C115.396 68.7396 113.042 69.2292 110.458 69.2292Z" fill="#393536"/>
<path d="M150.841 69.2292C148.508 69.2292 146.341 68.8021 144.341 67.9583C142.352 67.099 140.622 65.9323 139.154 64.4583C137.695 62.974 136.549 61.2292 135.716 59.2292C134.883 57.2188 134.466 55.0417 134.466 52.7083C134.466 50.375 134.883 48.2031 135.716 46.1875C136.549 44.1615 137.695 42.4062 139.154 40.9167C140.622 39.4323 142.352 38.2708 144.341 37.4375C146.341 36.6042 148.508 36.1875 150.841 36.1875C153.133 36.1875 155.279 36.6042 157.279 37.4375C159.289 38.2708 161.029 39.4323 162.487 40.9167C163.956 42.4062 165.112 44.1615 165.945 46.1875C166.789 48.2031 167.216 50.375 167.216 52.7083C167.216 55.0417 166.789 57.2188 165.945 59.2292C165.112 61.2292 163.956 62.974 162.487 64.4583C161.029 65.9323 159.289 67.099 157.279 67.9583C155.279 68.8021 153.133 69.2292 150.841 69.2292ZM150.841 62.5C152.159 62.5 153.367 62.2604 154.466 61.7708C155.575 61.2865 156.534 60.6042 157.341 59.7292C158.143 58.8438 158.779 57.8021 159.237 56.6042C159.695 55.3958 159.924 54.099 159.924 52.7083C159.924 51.3229 159.695 50.0312 159.237 48.8333C158.779 47.625 158.143 46.5938 157.341 45.7292C156.534 44.8542 155.575 44.1667 154.466 43.6667C153.367 43.1667 152.159 42.9167 150.841 42.9167C149.508 42.9167 148.284 43.1667 147.174 43.6667C146.075 44.1667 145.122 44.8542 144.32 45.7292C143.513 46.5938 142.883 47.625 142.424 48.8333C141.966 50.0312 141.737 51.3229 141.737 52.7083C141.737 54.099 141.966 55.3958 142.424 56.6042C142.883 57.8021 143.513 58.8281 144.32 59.6875C145.122 60.5521 146.075 61.2396 147.174 61.75C148.284 62.25 149.508 62.5 150.841 62.5Z" fill="#393536"/>
<path d="M181.256 36.8542H193.798C196.173 36.8542 198.36 37.2604 200.36 38.0625C202.36 38.8698 204.095 39.9739 205.569 41.375C207.037 42.7812 208.194 44.4531 209.027 46.3958C209.86 48.3281 210.277 50.4323 210.277 52.7083C210.277 54.9739 209.86 57.0729 209.027 59C208.194 60.9323 207.037 62.6042 205.569 64.0208C204.095 65.4375 202.36 66.5521 200.36 67.3542C198.36 68.1614 196.173 68.5625 193.798 68.5625H181.256V36.8542ZM193.86 62.0833C195.178 62.0833 196.386 61.8489 197.485 61.375C198.595 60.9062 199.558 60.25 200.381 59.4167C201.199 58.5729 201.839 57.5833 202.298 56.4583C202.756 55.3229 202.985 54.0729 202.985 52.7083C202.985 51.3489 202.756 50.1042 202.298 48.9792C201.839 47.8437 201.199 46.8542 200.381 46.0208C199.558 45.1771 198.595 44.5156 197.485 44.0417C196.386 43.5729 195.178 43.3333 193.86 43.3333H188.173V62.0833H193.86Z" fill="#393536"/>
<path d="M223.492 46.7917H229.825V68.5625H223.492V46.7917ZM226.659 43.4375C225.617 43.4375 224.726 43.0781 223.992 42.3542C223.268 41.6198 222.909 40.7292 222.909 39.6875C222.909 38.6771 223.268 37.8073 223.992 37.0833C224.726 36.3646 225.617 36 226.659 36C227.7 36 228.575 36.3646 229.284 37.0833C229.992 37.8073 230.346 38.6771 230.346 39.6875C230.346 40.7292 229.992 41.6198 229.284 42.3542C228.575 43.0781 227.7 43.4375 226.659 43.4375Z" fill="#393536"/>
<path d="M251.408 49.6666V68.5625H244.866V36.2708H248.47L266.179 55.7291V36.8541H272.699V69.125H269.116L251.408 49.6666Z" fill="#393536"/>
<path d="M302.812 69.1875C300.505 69.1875 298.374 68.776 296.416 67.9583C294.458 67.125 292.755 65.9792 291.312 64.5208C289.88 63.0521 288.76 61.3281 287.958 59.3542C287.166 57.3854 286.77 55.2292 286.77 52.8958C286.77 50.4948 287.187 48.2812 288.02 46.25C288.854 44.2083 290.01 42.4531 291.499 40.9792C292.984 39.4948 294.729 38.3281 296.729 37.4792C298.729 36.6198 300.895 36.1875 303.229 36.1875C305.729 36.1875 308.041 36.6771 310.166 37.6458C312.291 38.6042 314.109 39.9531 315.624 41.6875L310.812 46.4167C309.796 45.3073 308.656 44.4479 307.395 43.8333C306.13 43.224 304.791 42.9167 303.374 42.9167C302.01 42.9167 300.76 43.1615 299.624 43.6458C298.499 44.1354 297.51 44.8229 296.666 45.7083C295.833 46.5833 295.187 47.625 294.729 48.8333C294.27 50.0312 294.041 51.3333 294.041 52.75C294.041 54.1667 294.27 55.4792 294.729 56.6875C295.187 57.8854 295.838 58.9115 296.687 59.7708C297.546 60.6198 298.562 61.2813 299.729 61.75C300.895 62.224 302.187 62.4583 303.604 62.4583C304.812 62.4583 305.921 62.3021 306.937 61.9792C307.963 61.6615 308.921 61.1406 309.812 60.4167V56.1042H303.749V50.4375H316.729V63.1667C315.046 65.099 312.999 66.5833 310.583 67.625C308.176 68.6667 305.588 69.1875 302.812 69.1875Z" fill="#393536"/>
<path d="M330.635 46.7917H336.969V68.5625H330.635V46.7917ZM333.802 43.4375C332.76 43.4375 331.87 43.0781 331.135 42.3542C330.411 41.6198 330.052 40.7292 330.052 39.6875C330.052 38.6771 330.411 37.8073 331.135 37.0833C331.87 36.3646 332.76 36 333.802 36C334.844 36 335.719 36.3646 336.427 37.0833C337.135 37.8073 337.49 38.6771 337.49 39.6875C337.49 40.7292 337.135 41.6198 336.427 42.3542C335.719 43.0781 334.844 43.4375 333.802 43.4375Z" fill="#5271FF"/>
<path d="M360.531 69.4167C358.072 69.4167 355.864 68.8646 353.906 67.7708C351.947 66.6615 350.369 65.0625 349.176 62.9792L354.01 58.9583C355.645 61.8906 357.807 63.3542 360.489 63.3542C361.682 63.3542 362.645 63.0625 363.385 62.4792C364.135 61.8958 364.51 61.1354 364.51 60.1875C364.51 59.3021 364.145 58.5365 363.426 57.8958C362.702 57.2448 361.39 56.5104 359.489 55.6875C356.557 54.3958 354.416 52.9531 353.072 51.3542C351.739 49.7604 351.072 47.8542 351.072 45.6458C351.072 44.2604 351.322 42.9792 351.822 41.8125C352.333 40.6458 353.041 39.6458 353.947 38.8125C354.864 37.9792 355.952 37.3333 357.218 36.875C358.478 36.4167 359.869 36.1875 361.385 36.1875C365.395 36.1875 368.791 37.9115 371.572 41.3542L366.968 45.5208C366.093 44.3438 365.208 43.4792 364.322 42.9375C363.447 42.3854 362.468 42.1042 361.385 42.1042C360.343 42.1042 359.515 42.3698 358.906 42.8958C358.291 43.4115 357.989 44.1146 357.989 45C357.989 45.974 358.395 46.7812 359.218 47.4167C360.036 48.0417 361.265 48.7188 362.906 49.4375C365.906 50.7708 368.072 52.25 369.406 53.875C370.749 55.5 371.426 57.4167 371.426 59.625C371.426 61.0729 371.156 62.3958 370.614 63.6042C370.083 64.8021 369.343 65.8333 368.385 66.7083C367.437 67.5729 366.291 68.2396 364.947 68.7083C363.614 69.1771 362.14 69.4167 360.531 69.4167Z" fill="#5271FF"/>
</svg>
