<svg width="95" height="119" viewBox="0 0 95 119" fill="none" xmlns="http://www.w3.org/2000/svg">
<mask id="mask0_105_3" style="mask-type:luminance" maskUnits="userSpaceOnUse" x="0" y="0" width="36" height="100">
<path d="M0.208328 0.489594H35.6667V99.6667H0.208328V0.489594Z" fill="white"/>
</mask>
<g mask="url(#mask0_105_3)">
<path d="M0.239578 56.0208V43.6927C2.74479 43.5573 4.63541 43.1823 5.91145 42.5625C7.18229 41.9479 8.28125 40.9115 9.20833 39.4531C10.1354 38 10.7708 36.1771 11.1146 33.9844C11.3906 32.3386 11.5312 29.4792 11.5312 25.4063C11.5312 18.7604 11.8385 14.1302 12.4583 11.5104C13.0781 8.89064 14.1927 6.78126 15.8073 5.19272C17.4219 3.59897 19.776 2.33855 22.8698 1.41668C24.9687 0.796885 28.2656 0.489594 32.7708 0.489594H35.5V12.7708C31.6875 12.7708 29.2396 12.9844 28.1562 13.4115C27.0729 13.8386 26.276 14.4896 25.7604 15.3594C25.2448 16.2344 24.9844 17.7344 24.9844 19.8594C24.9844 22.0156 24.8281 26.1094 24.5208 32.1354C24.349 35.5261 23.901 38.2761 23.1823 40.3802C22.4583 42.4844 21.5365 44.224 20.4219 45.5938C19.3073 46.9636 17.5937 48.3854 15.2917 49.8594C17.3229 51.0208 18.9792 52.3854 20.2656 53.9427C21.5573 55.5 22.5417 57.3906 23.2344 59.6198C23.9219 61.8438 24.3646 64.8229 24.5729 68.5573C24.8125 74.2396 24.9323 77.8698 24.9323 79.4479C24.9323 81.7083 25.2083 83.2813 25.7604 84.1719C26.3073 85.0625 27.1406 85.7396 28.2604 86.2031C29.375 86.6667 31.7917 86.8958 35.5 86.8958V99.224H32.7708C28.1302 99.224 24.5729 98.8542 22.099 98.1198C19.625 97.3854 17.5365 96.1615 15.8333 94.4479C14.1302 92.7344 12.9896 90.6198 12.4062 88.1042C11.8229 85.5833 11.5312 81.6198 11.5312 76.2136C11.5312 69.9115 11.2552 65.8177 10.7031 63.9323C9.94791 61.1927 8.80729 59.2344 7.27604 58.0521C5.74479 56.8698 3.40104 56.1927 0.239578 56.0208Z" fill="#393536"/>
</g>
<path d="M78.4531 26.0677H70.3802V18.026H78.4531V26.0677Z" fill="#5271FF"/>
<path d="M76.5469 42.1458H70.3802V36.0052H76.5469V42.1458Z" fill="#5271FF"/>
<mask id="mask1_105_3" style="mask-type:luminance" maskUnits="userSpaceOnUse" x="39" y="19" width="38" height="100">
<path d="M39.6667 19.6667H77V118.49H39.6667V19.6667Z" fill="white"/>
</mask>
<g mask="url(#mask1_105_3)">
<path d="M53.0729 32.2135V26.0677H59.2396V32.2135H53.0729ZM68.7552 60.9323C67.2083 59.75 66.0573 57.7917 65.3021 55.0521C64.8854 53.5052 64.6354 50.5417 64.5573 46.1667H59.2396V38.125H64.4375C64.3125 35.026 64.0365 32.6094 63.625 30.8802C63.0208 28.3646 61.8802 26.2396 60.1979 24.5104C58.5104 22.7813 56.4323 21.5573 53.9583 20.8385C51.4844 20.1198 47.9271 19.7604 43.2865 19.7604H40.5521V32.0365C44.4375 32.0365 46.9375 32.2656 48.0573 32.7292C49.1719 33.1927 49.9479 33.849 50.375 34.7083C50.8073 35.5625 51.0365 37.276 51.0729 39.8438C51.2448 47.9948 51.5156 53.2708 51.8958 55.6667C52.4792 59.1615 53.5781 62.0365 55.1979 64.2969C56.3646 65.8698 58.2187 67.4792 60.7656 69.125C58.8021 70.2552 57.1979 71.5625 55.9427 73.0573C54.6875 74.5469 53.6823 76.3594 52.9271 78.5C52.1719 80.6406 51.7083 83.4896 51.5365 87.0521C51.2604 92.9427 51.1146 96.9323 51.099 99.0208C51.0781 101.109 50.8073 102.594 50.2708 103.469C49.7396 104.339 48.9062 105.005 47.7708 105.469C46.6354 105.932 44.2292 106.161 40.5521 106.161V118.495H43.2865C47.7865 118.495 51.0885 118.182 53.1823 117.568C56.3125 116.641 58.6823 115.385 60.3021 113.792C61.9167 112.198 63.0208 110.083 63.625 107.448C64.224 104.807 64.526 100.172 64.526 93.526C64.526 89.4844 64.6667 86.6406 64.9375 85C65.3177 82.8073 65.9635 80.9844 66.875 79.526C67.7812 78.0729 68.875 77.0365 70.1458 76.4219C71.4167 75.8021 73.3073 75.4271 75.8177 75.2917V62.9583C72.6562 62.7917 70.3021 62.1146 68.7552 60.9323Z" fill="#5271FF"/>
</g>
<mask id="mask2_105_3" style="mask-type:luminance" maskUnits="userSpaceOnUse" x="87" y="3" width="8" height="9">
<path d="M87.6667 3.66667H94.2083V11.6667H87.6667V3.66667Z" fill="white"/>
</mask>
<g mask="url(#mask2_105_3)">
<path d="M94.1875 10.4531H88.0208V4.3073H94.1875V10.4531Z" fill="#5271FF"/>
</g>
<path d="M63.2708 18.026H51.7656V6.5573H63.2708V18.026Z" fill="#5271FF"/>
</svg>
