<?xml version="1.0" standalone="no"?>
<!DOCTYPE svg PUBLIC "-//W3C//DTD SVG 20010904//EN"
 "http://www.w3.org/TR/2001/REC-SVG-20010904/DTD/svg10.dtd">
<svg version="1.0" xmlns="http://www.w3.org/2000/svg"
 width="952.000000pt" height="952.000000pt" viewBox="0 0 952.000000 952.000000"
 preserveAspectRatio="xMidYMid meet">
<metadata>
Created by potrace 1.14, written by Peter Selinger 2001-2017
</metadata>
<g transform="translate(0.000000,952.000000) scale(0.100000,-0.100000)"
fill="#000000" stroke="none">
<path d="M3548 9484 c-4 -3 -82 -7 -175 -9 -93 -2 -192 -6 -221 -10 -29 -3
-74 -8 -100 -10 -26 -2 -47 -4 -47 -5 0 -1 -12 -3 -26 -5 -96 -13 -174 -30
-215 -46 -16 -7 -35 -13 -41 -15 -60 -12 -305 -123 -318 -144 -3 -6 -11 -8
-16 -5 -5 4 -9 1 -9 -5 0 -6 -8 -13 -17 -17 -23 -8 -109 -78 -151 -123 -124
-130 -224 -326 -258 -505 -2 -11 -6 -31 -9 -45 -12 -57 -27 -155 -30 -205 -1
-16 -6 -75 -10 -130 -13 -170 -14 -200 -19 -560 -8 -572 -17 -751 -43 -870 -2
-11 -5 -29 -7 -40 -8 -50 -40 -166 -47 -171 -5 -3 -9 -13 -9 -23 0 -54 -116
-238 -205 -324 -61 -59 -190 -133 -250 -143 -16 -2 -38 -7 -47 -10 -10 -3 -29
-7 -43 -10 -14 -2 -37 -6 -52 -9 -16 -2 -59 -8 -98 -11 -38 -4 -77 -8 -85 -9
-13 -2 -16 -51 -20 -349 -3 -192 -2 -350 3 -353 4 -2 5 -9 1 -14 -7 -12 -6
-261 2 -268 2 -3 24 -6 47 -7 79 -4 177 -20 262 -44 22 -6 47 -12 57 -15 29
-7 152 -69 178 -90 47 -38 140 -138 140 -151 0 -7 6 -17 13 -21 32 -20 129
-262 147 -368 5 -27 11 -60 14 -71 2 -12 7 -59 11 -105 4 -46 8 -100 10 -119
6 -59 16 -408 21 -740 2 -173 6 -337 8 -365 13 -175 19 -242 23 -260 2 -11 6
-38 8 -60 2 -22 5 -40 5 -40 1 0 3 -11 6 -25 2 -14 6 -36 8 -50 3 -14 8 -36
11 -50 3 -14 7 -29 9 -35 8 -35 40 -122 49 -132 5 -7 7 -13 4 -13 -9 0 48
-104 96 -176 38 -57 128 -157 197 -217 73 -64 305 -190 369 -200 9 -1 21 -5
26 -8 9 -6 54 -19 84 -25 7 -1 34 -7 60 -13 81 -18 158 -28 346 -46 28 -3 175
-7 328 -10 257 -4 277 -3 278 13 0 9 0 42 -1 72 0 30 -1 62 0 70 0 95 -2 165
-5 171 -3 4 1 10 7 12 10 4 10 6 1 6 -9 1 -10 8 -4 23 5 13 5 32 1 43 -4 11
-4 29 -1 40 4 11 6 31 5 45 -3 39 -5 122 -4 180 0 8 0 38 0 65 -1 28 0 57 0
65 0 8 0 33 0 55 -1 55 -1 62 1 90 1 14 0 27 -2 29 -2 2 -87 6 -189 9 -102 3
-192 8 -200 11 -8 2 -35 7 -60 10 -81 10 -163 36 -175 56 -3 5 -11 8 -16 5 -5
-4 -9 -1 -9 4 0 6 -5 11 -11 11 -24 0 -103 88 -130 145 -41 90 -47 135 -54
371 -13 475 -30 919 -34 919 -1 0 -4 36 -7 80 -5 77 -10 134 -14 145 -2 3 -2
8 -1 12 1 7 -15 119 -25 173 -48 272 -155 525 -289 684 -67 79 -207 211 -224
211 -5 0 -11 4 -13 8 -1 5 -38 32 -81 62 -43 29 -75 56 -70 60 4 3 46 33 93
65 161 110 270 214 356 343 105 154 176 327 219 532 18 81 20 94 35 215 10 87
17 165 25 320 16 319 26 541 30 737 2 98 6 182 9 187 4 5 2 12 -4 16 -6 4 -8
10 -5 15 3 5 7 42 10 82 9 155 36 228 110 304 45 45 92 75 151 95 42 14 47 15
114 24 97 13 131 16 290 19 164 4 165 4 168 28 4 33 2 100 -4 109 -2 4 2 10 8
12 10 4 10 6 1 6 -9 1 -10 8 -4 24 5 12 5 31 1 42 -4 11 -4 29 -1 40 4 11 6
31 5 45 -3 39 -5 122 -4 180 0 8 0 38 0 65 -1 28 0 57 0 65 0 8 0 33 0 55 0
22 0 47 0 55 0 8 0 38 0 65 -1 28 -1 56 0 63 0 6 0 27 1 45 1 53 -5 87 -16 88
-54 4 -63 3 -58 -4 3 -5 -3 -6 -14 -3 -26 8 -122 10 -130 2 -3 -3 -11 -1 -18
4 -7 5 -14 7 -17 4z"/>
<path d="M8009 9169 c-6 -3 -9 -15 -8 -25 2 -11 0 -25 -4 -31 -5 -7 -5 -13 0
-13 10 0 9 -93 -1 -109 -4 -6 -4 -11 1 -11 10 0 9 -162 0 -178 -4 -6 -4 -13 1
-16 5 -3 7 -25 5 -50 -2 -26 0 -47 4 -47 25 -5 483 -4 484 0 4 24 3 474 -1
480 -6 9 -467 9 -481 0z"/>
<path d="M5104 8991 c-2 -2 -4 -208 -4 -458 0 -424 1 -453 18 -454 74 -4 902
-3 903 1 1 7 1 881 0 900 -1 13 -59 15 -457 15 -250 0 -457 -2 -460 -4z"/>
<path d="M6827 8084 c-3 -5 -57 -9 -121 -8 l-116 1 2 -321 3 -321 320 0 320 0
0 321 1 321 -88 -1 c-48 -1 -88 3 -88 7 0 5 -5 5 -12 1 -17 -11 -202 -11 -209
0 -4 4 -9 4 -12 0z"/>
<path d="M4205 7457 c0 -267 4 -489 8 -493 4 -5 63 -9 130 -10 137 -2 280 -11
317 -19 14 -3 39 -7 55 -10 81 -11 187 -65 230 -117 28 -33 57 -85 61 -107 2
-7 7 -34 13 -60 20 -92 22 -123 36 -646 8 -312 15 -457 30 -660 12 -159 25
-276 32 -288 2 -4 6 -25 8 -47 2 -22 11 -66 20 -97 38 -139 44 -160 55 -188 6
-16 11 -31 10 -33 -1 -2 6 -14 14 -28 9 -13 14 -24 12 -24 -4 0 52 -114 85
-170 75 -131 241 -294 427 -420 34 -23 62 -45 62 -48 0 -4 -37 -32 -82 -62
-97 -64 -99 -65 -196 -155 -41 -38 -102 -106 -134 -150 -32 -44 -63 -85 -68
-92 -31 -38 -146 -302 -153 -354 -2 -8 -6 -19 -9 -25 -4 -6 -10 -24 -12 -40
-9 -48 -15 -75 -20 -92 -5 -16 -9 -42 -21 -127 -3 -19 -7 -52 -10 -72 -10 -70
-20 -214 -30 -453 -4 -74 -8 -169 -10 -210 -2 -41 -6 -185 -10 -320 -9 -348
-14 -421 -36 -505 -28 -103 -99 -185 -204 -235 -62 -30 -84 -37 -145 -45 -14
-2 -25 -4 -25 -5 0 -6 -239 -21 -347 -21 -49 0 -89 -3 -89 -7 -1 -4 -2 -226
-3 -494 l-2 -486 306 3 c168 2 316 6 330 9 14 2 55 7 92 11 37 3 80 8 95 11
15 3 42 7 58 9 58 7 244 62 262 77 7 6 13 8 13 5 0 -17 200 82 293 145 83 56
121 90 202 183 35 41 115 178 115 198 0 8 3 17 8 19 7 3 59 149 68 191 2 12 6
33 9 47 3 14 7 36 10 50 3 14 7 43 10 65 2 22 6 54 9 70 4 28 14 138 22 250 2
28 6 145 9 260 4 116 7 227 9 248 1 20 -2 37 -7 37 -4 0 -5 5 -2 10 4 6 8 126
10 268 3 237 6 300 21 437 7 72 13 103 29 170 9 33 18 69 20 81 9 41 74 193
100 233 14 22 25 43 25 46 0 9 44 59 110 126 86 86 194 139 337 165 13 2 35 6
50 9 33 7 136 18 176 19 15 1 28 3 28 6 3 13 5 966 2 976 -2 6 -27 12 -56 13
-67 3 -110 8 -172 22 -27 5 -60 12 -73 15 -70 14 -252 98 -252 116 0 4 -5 8
-10 8 -9 0 -88 77 -115 113 -44 57 -123 219 -140 287 -1 3 -5 12 -8 20 -4 8
-9 26 -11 40 -3 14 -5 25 -6 25 -1 0 -3 11 -6 25 -2 14 -6 39 -9 55 -17 96
-34 331 -37 517 0 53 -5 88 -12 91 -6 2 -102 3 -213 3 l-203 -1 0 65 c-3 287
-1 491 4 499 4 5 3 12 -2 15 -5 3 -7 19 -4 36 l4 30 204 0 c214 0 207 -1 206
40 -2 75 -18 279 -27 338 -11 83 -15 106 -26 162 -31 159 -113 341 -209 464
-50 65 -177 181 -251 229 -205 134 -397 190 -769 223 -25 2 -176 7 -335 10
l-290 7 0 -486z m1482 -26 c9 -1 12 -60 12 -244 l-1 -243 -246 0 -247 0 0 240
c0 133 3 243 7 246 5 4 430 5 475 1z"/>
<path d="M6660 6640 c0 -3 -15 -5 -32 -5 l-33 0 -3 -242 -2 -243 42 -1 c141
-2 443 2 447 6 7 7 7 465 1 476 -3 5 -29 8 -58 6 -29 -1 -52 1 -52 5 0 4 -12
3 -27 -1 -16 -5 -37 -5 -48 -1 -11 4 -24 5 -29 2 -10 -5 -24 -5 -149 0 -31 2
-57 1 -57 -2z"/>
</g>
</svg>
