<?xml version="1.0" standalone="no"?>
<!DOCTYPE svg PUBLIC "-//W3C//DTD SVG 20010904//EN"
 "http://www.w3.org/TR/2001/REC-SVG-20010904/DTD/svg10.dtd">
<svg version="1.0" xmlns="http://www.w3.org/2000/svg"
 width="286.000000pt" height="286.000000pt" viewBox="0 0 286.000000 286.000000"
 preserveAspectRatio="xMidYMid meet">
<metadata>
Created by potrace 1.14, written by Peter Selinger 2001-2017
</metadata>
<g transform="translate(0.000000,286.000000) scale(0.100000,-0.100000)"
fill="#000000" stroke="none">
<path d="M899 2577 c-19 -11 -51 -22 -72 -23 -77 -4 -105 -14 -111 -37 -11
-40 -7 -48 14 -27 23 23 29 24 64 10 33 -12 35 -48 4 -54 -32 -7 -98 -3 -98 6
0 4 -6 5 -14 2 -8 -3 -29 11 -50 32 -30 31 -37 34 -42 19 -11 -27 42 -62 104
-70 33 -4 52 -11 52 -19 0 -8 7 -19 15 -26 13 -11 22 -10 53 5 20 10 39 19 42
20 3 1 22 10 43 20 25 12 36 24 32 33 -9 23 15 42 54 42 23 1 47 9 65 25 l29
23 -37 16 c-61 26 -110 27 -147 3z"/>
<path d="M2052 2549 c-4 -4 -31 -14 -60 -24 -42 -13 -52 -20 -47 -35 8 -25
-19 -42 -66 -42 -23 1 -65 -8 -92 -18 -56 -22 -71 -18 -62 13 4 14 3 17 -2 10
-5 -7 -40 -28 -77 -47 -57 -28 -66 -35 -51 -43 15 -9 15 -13 4 -31 -12 -18
-60 -47 -81 -47 -19 0 -15 -13 7 -25 14 -7 25 -17 25 -21 0 -16 -51 -47 -70
-42 -22 6 -25 0 -10 -27 8 -15 6 -21 -10 -30 -32 -17 -80 16 -50 35 17 10 11
26 -8 23 -23 -4 -72 21 -72 37 0 6 11 18 25 25 l25 13 -40 18 c-45 20 -70 41
-70 59 0 6 -13 2 -29 -9 -16 -12 -57 -35 -92 -52 -34 -17 -57 -34 -52 -38 21
-13 67 -98 83 -151 37 -127 -9 -214 -104 -196 -48 9 -60 35 -61 132 -1 65 -6
88 -24 117 -25 40 -28 42 -65 27 -25 -9 -37 2 -16 15 16 10 1 25 -18 18 -9 -4
-19 -9 -22 -13 -15 -19 -102 -60 -136 -64 -21 -3 -55 -10 -74 -17 -39 -14 -74
-50 -58 -60 9 -6 -6 -15 -135 -82 -32 -16 -56 -31 -55 -33 5 -5 112 23 152 40
52 22 76 21 76 -3 0 -30 -85 -117 -132 -136 -47 -19 -143 -22 -163 -5 -13 11
-79 16 -105 8 -47 -15 -70 -29 -70 -44 0 -10 3 -15 6 -11 3 3 14 -2 25 -11 27
-26 115 -55 163 -54 54 0 76 5 171 37 103 34 118 41 190 91 88 60 120 74 74
32 -20 -18 -44 -48 -53 -66 -13 -25 -26 -34 -61 -43 -32 -8 -52 -21 -67 -43
-46 -64 -112 -116 -150 -116 -9 0 -18 -5 -20 -11 -2 -6 -38 -12 -88 -13 -82
-3 -84 -4 -117 -39 -40 -45 -42 -63 -6 -71 73 -16 102 -10 228 52 69 34 132
62 140 62 60 0 -82 -170 -183 -221 -45 -22 -67 -22 -195 -3 -51 8 -78 -15 -71
-60 7 -37 55 -85 87 -87 54 -3 75 -2 115 4 23 4 42 12 42 17 0 6 6 10 13 10 7
0 22 8 33 17 10 10 37 30 59 45 22 15 60 46 84 68 24 22 47 40 51 40 44 0 -60
-171 -159 -263 -75 -69 -120 -85 -228 -80 -72 4 -83 2 -92 -15 -21 -38 48
-106 119 -117 21 -3 90 13 127 30 60 28 138 97 221 193 28 32 38 11 21 -42 -7
-22 -16 -43 -19 -46 -3 -3 -16 -27 -29 -55 -28 -56 -80 -126 -126 -167 -53
-48 -93 -62 -180 -63 -87 0 -105 -6 -105 -35 0 -24 55 -70 85 -70 13 0 27 -5
30 -10 11 -17 93 -3 143 25 87 47 177 144 293 313 25 37 54 69 64 71 16 3 17
-3 13 -57 -7 -76 -50 -156 -109 -200 -59 -45 -68 -67 -42 -94 21 -21 22 -21
73 -2 73 26 124 96 181 249 23 61 31 69 58 60 34 -11 15 -94 -41 -171 -30 -42
-31 -45 -14 -63 14 -16 23 -18 45 -10 41 14 104 78 125 127 18 41 36 55 36 30
0 -16 -33 -105 -43 -114 -4 -4 -7 -11 -7 -16 0 -5 28 6 63 25 51 27 167 79
187 83 20 4 67 18 75 23 6 3 18 7 28 8 10 2 29 10 43 20 37 24 12 33 -50 17
-28 -7 -66 -16 -85 -19 -19 -3 -42 -10 -52 -16 -11 -5 -19 -6 -19 -1 0 11 42
30 80 37 63 12 74 15 82 23 5 5 -3 14 -17 22 -14 7 -25 17 -25 22 0 4 -7 8
-15 8 -8 0 -15 5 -15 10 0 6 19 10 43 10 40 0 123 21 212 53 40 15 60 14 50
-3 -15 -25 25 -18 93 15 42 21 93 45 112 54 53 24 221 139 253 172 15 16 27
38 27 48 0 25 17 38 63 46 20 4 37 11 37 16 0 5 7 9 16 9 11 0 14 5 10 16 -25
66 -19 74 40 49 33 -14 37 -13 65 7 l29 21 -49 28 c-54 31 -111 96 -111 127 0
17 5 20 30 17 17 -2 43 -11 58 -20 34 -19 133 -44 150 -38 23 9 12 33 -28 62
-21 15 -36 31 -33 35 3 3 0 6 -9 6 -41 0 -168 95 -168 126 0 7 -4 14 -10 16
-6 2 -6 9 0 18 8 13 18 12 75 -8 35 -13 73 -25 82 -27 10 -2 18 -4 18 -5 0 -1
18 -2 40 -2 82 0 83 0 77 27 -2 14 3 35 11 48 19 30 8 53 -20 39 -10 -6 -69
-10 -131 -10 -99 0 -118 -2 -159 -23 -53 -28 -63 -44 -34 -54 30 -9 26 -21 -6
-19 -25 1 -72 -8 -113 -22 -8 -3 -17 -5 -20 -6 -3 0 -25 -12 -50 -26 -42 -24
-40 -20 40 61 47 47 102 104 122 126 20 22 54 49 75 60 45 22 89 59 81 67 -3
3 -23 -7 -44 -21 -40 -27 -59 -19 -30 14 18 19 22 46 6 36 -5 -3 -15 7 -22 22
-16 36 -27 43 -47 32 -19 -10 -199 -78 -223 -84 -64 -15 -106 -84 -104 -170 3
-98 -21 -144 -74 -145 -61 0 -94 29 -104 92 -11 72 43 212 103 264 56 49 135
83 204 88 71 5 118 25 133 60 6 15 23 24 61 31 59 11 134 66 100 73 -9 2 -30
-9 -46 -26 -16 -16 -35 -29 -43 -29 -7 0 -32 -4 -56 -7 -50 -8 -78 -2 -86 20
-4 11 5 20 30 30 35 14 38 14 60 -7 l24 -22 0 21 c0 18 -33 60 -49 63 -31 4
-63 3 -69 -2z m-702 -1445 c0 -8 -19 -13 -24 -6 -3 5 1 9 9 9 8 0 15 -2 15 -3z"/>
<path d="M1004 2411 c-3 -3 -9 -6 -12 -7 -4 0 -23 -7 -43 -16 -20 -9 -45 -19
-57 -22 -29 -9 -28 -23 1 -21 25 1 102 35 131 57 16 13 16 15 2 15 -9 0 -19
-3 -22 -6z"/>
<path d="M297 2380 c4 -16 -3 -29 -26 -50 l-31 -29 23 -18 c13 -10 47 -29 75
-42 51 -24 52 -24 103 -8 28 10 62 17 75 17 36 0 29 14 -13 29 -34 13 -112 57
-185 105 -26 17 -26 17 -21 -4z"/>
<path d="M1289 2373 c-13 -17 -13 -17 6 -3 11 8 22 16 24 17 2 2 0 3 -6 3 -6
0 -17 -8 -24 -17z"/>
<path d="M2529 2349 c-20 -12 -43 -33 -52 -48 -15 -26 -17 -32 -17 -51 0 -5
-11 -21 -25 -35 -35 -34 -18 -32 68 9 74 36 96 62 103 123 3 30 -27 31 -77 2z"/>
<path d="M654 2292 c-20 -20 -6 -26 35 -15 l30 8 -25 12 c-20 9 -27 8 -40 -5z"/>
<path d="M511 2222 c-74 -25 -74 -25 -45 -37 16 -6 31 -8 32 -3 2 4 8 6 13 2
5 -3 9 2 9 10 0 9 13 18 34 22 19 3 37 12 40 20 6 17 9 17 -83 -14z"/>
<path d="M151 2166 c-18 -22 -7 -33 29 -28 27 4 47 18 38 27 -13 14 -56 14
-67 1z"/>
<path d="M2650 1999 c-22 -18 -22 -19 -3 -10 12 6 25 16 28 21 9 15 3 12 -25
-11z"/>
<path d="M2645 1889 c-14 -6 -8 -8 24 -4 24 3 46 7 49 10 9 9 -52 4 -73 -6z"/>
<path d="M2615 1330 c-30 -20 -80 -44 -124 -61 l-24 -10 21 -15 c22 -15 116
-21 162 -10 33 8 68 45 74 79 5 26 -7 37 -19 17 -10 -16 -45 -12 -45 5 0 19
-8 18 -45 -5z"/>
<path d="M2135 1215 c-32 -31 -22 -56 14 -34 25 16 35 39 22 52 -6 6 -19 0
-36 -18z"/>
<path d="M2257 1204 c-4 -4 -7 -14 -7 -23 0 -11 3 -12 11 -4 6 6 10 16 7 23
-2 6 -7 8 -11 4z"/>
<path d="M2316 1177 l-39 -33 29 -30 c69 -69 177 -144 208 -144 16 0 136 97
136 109 0 3 -30 6 -68 7 -80 1 -134 25 -190 84 l-37 39 -39 -32z"/>
<path d="M2160 1128 c-30 -15 -54 -34 -54 -42 2 -16 60 -104 102 -155 25 -29
31 -32 48 -21 11 7 27 25 36 40 15 26 14 30 -29 116 -24 49 -45 89 -46 89 -1
1 -27 -12 -57 -27z"/>
<path d="M1908 1077 c-25 -18 -65 -39 -87 -47 -23 -7 -41 -17 -41 -22 0 -4 -3
-7 -7 -6 -5 1 -34 -15 -66 -36 -32 -21 -80 -48 -105 -60 -69 -32 -76 -37 -62
-46 14 -8 111 19 122 35 4 5 8 7 8 2 0 -4 18 5 40 19 29 20 40 34 40 53 1 23
2 24 14 9 11 -16 16 -16 57 -2 56 20 69 31 66 57 -2 18 3 22 28 21 20 0 40 9
60 28 l30 28 -25 0 c-14 0 -46 -15 -72 -33z"/>
<path d="M2031 1042 c-6 -11 -24 -25 -41 -32 -37 -15 -36 -21 24 -135 46 -87
51 -89 111 -54 l34 21 -24 26 c-14 15 -25 32 -25 39 0 7 -4 13 -8 13 -9 0 -42
91 -42 116 0 22 -18 26 -29 6z"/>
<path d="M1685 1027 c-164 -67 -270 -128 -342 -197 -18 -16 -36 -30 -42 -30
-5 0 -13 -5 -17 -12 -4 -6 -3 -8 3 -5 13 8 53 -21 53 -39 0 -25 14 -15 55 42
57 80 117 125 223 169 50 21 92 41 92 45 0 4 9 10 20 13 11 3 20 12 20 21 0
19 -2 19 -65 -7z"/>
<path d="M1838 946 l-47 -22 19 -32 c21 -35 89 -82 119 -82 29 0 42 22 28 46
-73 122 -65 116 -119 90z"/>
<path d="M2319 960 c-1 -3 -3 -18 -5 -35 -2 -16 -13 -38 -24 -47 -12 -10 -19
-22 -15 -27 8 -14 95 29 95 46 0 7 -3 13 -8 13 -4 0 -15 12 -24 28 -10 15 -18
25 -19 22z"/>
<path d="M1730 885 c-14 -8 -56 -26 -95 -41 -38 -15 -90 -37 -115 -49 -76 -38
-197 -170 -210 -230 -9 -38 -47 -121 -69 -147 -12 -16 -12 -18 2 -18 26 0 104
37 118 57 14 18 60 43 152 82 l48 20 -6 43 c-4 23 -9 46 -12 51 -13 21 -4 101
14 118 17 17 21 17 39 5 12 -8 42 -47 68 -85 42 -62 50 -69 63 -56 8 8 26 15
41 16 51 1 85 8 118 24 19 9 34 18 34 20 0 2 -24 29 -54 60 -29 31 -64 76 -76
100 -26 50 -25 50 -60 30z"/>
<path d="M2428 797 c-14 -12 -34 -27 -44 -33 -17 -10 -16 -12 9 -29 27 -17 30
-17 87 0 33 10 60 22 60 26 0 5 -12 4 -27 -2 -30 -11 -58 -5 -48 12 4 5 18 15
32 20 30 11 28 16 -13 23 -21 4 -37 -1 -56 -17z"/>
<path d="M1149 702 c-120 -76 -199 -139 -199 -157 0 -9 -115 -60 -160 -71 -14
-3 -80 -35 -80 -38 0 -8 51 4 114 26 77 27 95 25 148 -12 24 -17 56 -32 71
-33 25 -2 30 5 66 82 46 97 115 216 144 249 33 36 9 25 -104 -46z"/>
<path d="M2545 722 c-38 -14 -63 -28 -54 -30 17 -3 129 42 129 52 0 7 7 9 -75
-22z"/>
<path d="M1975 609 c-37 -20 -55 -24 -68 -17 -14 7 -35 2 -83 -22 -35 -17 -64
-34 -64 -39 0 -5 9 -30 21 -55 16 -37 24 -46 37 -41 52 20 138 47 182 56 54
12 62 21 29 36 -22 9 -21 10 10 45 l31 36 -22 14 c-21 13 -28 12 -73 -13z"/>
<path d="M1558 457 c-20 -12 -61 -44 -90 -70 -47 -43 -133 -99 -196 -127 -23
-10 -50 -55 -39 -66 3 -4 18 3 33 15 31 25 39 22 30 -12 -13 -53 -62 -103
-140 -140 -42 -21 -76 -42 -76 -47 0 -15 54 -2 111 27 63 33 75 42 177 145 56
56 91 83 130 97 50 20 132 60 160 79 11 7 6 21 -23 66 -21 31 -38 56 -39 55
-1 0 -18 -10 -38 -22z"/>
<path d="M2186 415 l-29 -12 32 -11 c36 -13 85 0 78 21 -5 16 -44 17 -81 2z"/>
<path d="M765 330 c-11 -4 -23 -6 -27 -3 -12 7 -9 -15 2 -22 6 -4 10 -16 8
-28 -3 -20 2 -22 43 -22 32 0 54 -6 68 -19 21 -19 21 -19 21 2 0 23 -53 85
-80 94 -8 3 -24 2 -35 -2z"/>
<path d="M2084 333 c-12 -2 -31 -15 -43 -27 l-22 -24 45 15 c25 9 46 22 46 29
0 8 -1 13 -2 13 -2 -1 -13 -4 -24 -6z"/>
<path d="M1802 234 c-30 -20 -52 -38 -49 -40 2 -3 17 -6 33 -8 40 -4 108 33
112 62 5 34 -34 28 -96 -14z"/>
<path d="M1633 132 c-18 -9 -33 -23 -33 -29 0 -17 2 -16 50 4 22 10 39 22 37
27 -5 16 -20 15 -54 -2z"/>
</g>
</svg>
